<?xml version="1.0" encoding="UTF-8" ?>
<!DOCTYPE svg PUBLIC "-//W3C//DTD SVG 1.1//EN" "http://www.w3.org/Graphics/SVG/1.1/DTD/svg11.dtd">
<svg width="615pt" height="615pt" viewBox="0 0 615 615" version="1.1" xmlns="http://www.w3.org/2000/svg">
<g id="#0f0f0fff">
<path fill="#0f0f0f" opacity="1.00" d=" M 0.00 0.00 L 615.00 0.00 L 615.00 615.00 L 0.00 615.00 L 0.00 0.00 M 222.98 38.94 C 191.96 51.09 164.46 71.56 143.13 97.06 C 126.60 116.48 114.08 139.04 104.64 162.65 C 99.30 176.00 95.78 189.95 91.65 203.68 C 80.25 210.81 69.17 218.44 57.96 225.87 C 55.35 227.30 54.07 230.60 54.64 233.44 C 56.83 240.76 62.54 246.18 66.27 252.67 C 67.79 255.20 68.19 258.45 70.57 260.41 C 75.67 265.22 82.51 267.36 88.81 270.09 C 90.30 273.84 91.82 277.61 94.10 280.97 C 95.55 283.21 97.49 285.26 98.02 287.97 C 103.82 312.49 115.75 335.22 130.55 355.48 C 145.22 374.93 162.84 392.26 183.16 405.77 C 208.66 422.89 237.54 435.50 268.03 440.13 C 278.32 442.06 288.94 442.59 298.92 445.91 C 301.03 446.77 304.27 447.96 303.94 450.77 C 302.69 453.57 299.68 454.90 297.06 456.13 C 289.95 459.06 282.46 460.99 274.99 462.79 C 253.89 467.42 232.73 472.14 212.30 479.27 C 203.36 482.60 193.73 485.98 187.34 493.44 C 183.29 497.87 182.53 505.05 186.15 509.96 C 191.53 517.84 200.41 522.30 208.85 526.17 C 222.71 532.26 237.29 536.45 251.58 541.37 C 265.49 546.38 280.25 551.32 290.93 562.04 C 296.50 567.41 296.65 576.83 291.69 582.65 C 282.23 593.42 268.90 599.55 255.95 605.03 C 254.46 605.69 252.68 606.04 251.73 607.51 C 263.48 608.21 275.26 608.05 287.03 608.19 C 296.67 607.79 306.35 608.44 315.96 607.29 C 328.03 606.85 340.05 605.54 351.98 603.71 C 368.60 600.90 385.29 597.00 400.42 589.34 C 407.40 585.85 414.22 581.24 418.30 574.42 C 421.25 569.63 421.49 563.29 418.54 558.45 C 414.39 551.27 406.90 547.10 399.91 543.16 C 381.38 533.57 361.17 527.91 341.02 522.87 C 319.97 517.42 298.43 513.94 277.66 507.42 C 273.11 505.83 268.00 503.87 265.59 499.38 C 264.14 496.97 265.45 494.07 267.23 492.26 C 270.72 488.64 275.62 486.96 280.16 485.10 C 293.11 480.50 306.57 477.44 319.42 472.51 C 327.58 469.39 335.65 465.01 341.23 458.12 C 346.65 451.53 346.52 441.35 341.31 434.68 C 334.82 426.04 324.44 421.55 314.35 418.59 C 287.49 410.03 259.81 404.24 233.22 394.81 C 217.18 388.75 200.83 380.68 190.44 366.51 C 183.90 357.78 180.67 347.01 179.62 336.26 C 177.81 324.53 180.42 312.76 180.00 301.00 C 180.17 294.24 179.96 287.20 177.13 280.94 C 173.34 274.62 166.28 270.97 159.19 269.72 C 152.91 268.56 146.03 268.20 140.15 271.15 C 134.94 273.75 129.56 278.71 130.99 285.15 C 123.24 287.06 114.79 285.93 107.61 282.51 C 102.63 279.81 97.76 275.46 96.87 269.59 C 100.59 269.12 104.40 268.56 107.73 266.71 C 113.02 263.84 117.16 259.29 122.41 256.34 C 127.50 253.17 133.48 252.01 138.84 249.41 C 127.73 245.87 115.16 248.07 105.59 254.63 C 104.29 255.67 103.65 257.28 102.78 258.66 C 104.36 260.08 106.19 261.12 108.26 261.63 C 97.53 264.91 85.35 262.15 76.28 255.75 C 73.19 253.74 75.00 249.04 72.02 246.89 C 67.79 243.11 65.00 238.08 63.22 232.74 C 76.11 219.35 92.74 210.49 106.98 198.72 C 107.87 192.01 108.43 184.57 113.50 179.50 C 121.76 172.06 131.57 166.63 141.36 161.50 C 144.29 159.85 147.77 158.59 149.65 155.63 C 153.88 148.41 156.67 140.42 158.40 132.25 C 158.95 131.07 158.58 129.09 160.00 128.57 C 166.56 133.61 169.18 142.27 169.08 150.27 C 180.66 139.05 188.11 124.41 197.97 111.88 C 203.58 121.75 205.78 132.99 208.01 143.99 C 216.28 143.33 223.48 148.47 228.84 154.24 C 224.11 162.09 220.14 170.39 216.96 178.98 C 211.33 193.83 206.70 209.24 205.48 225.14 C 207.18 223.58 207.42 221.18 208.24 219.15 C 214.13 202.30 221.51 185.95 230.18 170.35 C 232.77 165.41 236.95 161.40 240.01 156.94 C 236.80 149.28 232.05 142.09 225.30 137.09 C 232.16 127.71 241.06 119.73 251.39 114.37 C 256.98 111.62 262.76 108.76 269.13 108.66 C 267.35 104.01 266.19 99.08 266.02 94.10 C 265.81 83.48 266.51 72.82 268.06 62.33 C 275.52 68.36 281.61 75.85 288.67 82.32 C 294.88 87.90 301.43 93.30 309.11 96.73 C 306.41 85.22 307.00 73.30 307.06 61.57 C 315.84 66.99 322.50 75.13 328.75 83.19 C 331.17 86.10 333.32 89.36 336.54 91.46 C 342.49 95.60 349.83 96.53 356.69 98.26 C 367.71 100.66 378.33 104.49 389.05 107.92 C 393.85 109.51 398.60 111.38 402.88 114.10 C 403.46 118.22 404.34 122.29 405.23 126.35 C 406.05 128.32 406.22 131.62 408.96 131.82 C 426.89 134.27 444.82 137.35 462.05 143.03 C 461.85 148.64 461.24 154.95 457.18 159.22 C 452.47 164.61 449.69 171.44 444.63 176.56 C 439.81 181.59 432.85 183.78 426.00 183.66 C 426.00 182.75 426.01 180.95 426.01 180.04 C 415.43 176.26 402.30 177.22 393.66 184.89 C 407.42 181.72 420.08 190.51 433.75 189.55 C 430.71 196.68 426.15 203.40 419.66 207.79 C 416.58 210.37 412.34 210.54 408.62 209.48 C 398.90 206.60 388.58 205.96 378.56 207.42 C 365.45 209.82 353.02 217.38 346.27 229.08 C 345.39 222.84 345.27 216.55 346.21 210.31 C 342.69 211.39 339.02 212.62 336.45 215.40 C 331.77 220.32 330.77 227.52 330.99 234.03 C 331.62 244.60 334.55 255.36 341.20 263.78 C 348.58 273.42 357.52 282.13 368.02 288.29 C 367.47 287.41 366.88 286.57 366.25 285.77 C 357.61 276.01 350.49 264.89 345.40 252.88 C 360.66 236.46 381.51 225.35 403.59 221.57 C 412.58 219.59 421.84 219.73 431.00 219.39 C 432.86 219.55 433.56 217.61 434.40 216.34 C 441.32 204.08 449.90 192.04 462.16 184.65 C 459.93 196.11 456.58 207.79 458.27 219.56 C 463.30 213.20 467.58 206.31 472.22 199.67 C 475.31 209.26 476.35 219.77 474.53 229.73 C 490.28 236.44 504.75 246.24 516.89 258.30 C 516.57 262.41 516.20 266.51 516.00 270.63 C 525.36 275.26 534.34 280.60 543.59 285.42 C 548.88 288.82 554.36 292.09 559.20 296.09 C 558.97 299.44 556.96 302.29 555.09 304.95 C 549.31 312.50 542.74 319.60 534.82 324.95 C 531.40 323.60 527.71 324.29 524.20 323.73 C 519.50 321.44 515.10 318.34 509.90 317.21 C 505.01 316.38 499.84 317.31 495.60 319.91 C 498.80 320.17 502.12 319.65 505.22 320.68 C 508.60 321.69 511.11 324.35 514.20 325.94 C 518.42 328.40 524.01 325.94 528.01 329.05 C 528.22 332.72 525.00 335.32 522.71 337.75 C 518.91 341.06 513.92 344.98 508.58 343.63 C 491.63 337.33 476.82 324.08 457.96 323.86 C 444.18 322.77 429.86 328.48 421.26 339.43 C 416.33 345.40 414.51 353.33 414.95 360.95 C 415.20 375.72 424.86 387.84 429.32 401.41 C 446.84 387.71 463.34 372.51 477.20 355.06 C 479.88 351.76 482.03 347.95 485.40 345.26 C 488.27 342.78 492.56 343.92 495.69 345.34 C 502.01 348.19 508.49 352.76 515.79 350.74 C 526.20 347.87 531.50 337.67 538.29 330.23 C 543.79 326.98 549.90 324.11 553.42 318.49 C 559.40 312.01 564.31 304.50 566.83 295.98 C 566.66 291.82 562.08 290.70 559.19 288.82 C 547.96 281.49 537.04 273.70 525.99 266.11 C 525.56 262.54 525.60 258.69 523.59 255.57 C 521.01 251.68 517.28 248.74 514.42 245.08 C 515.57 215.33 511.40 185.15 500.40 157.37 C 482.57 111.02 447.34 71.44 402.98 49.01 C 347.96 20.73 280.67 15.78 222.98 38.94 M 369.47 133.55 C 376.53 136.75 384.43 137.66 392.08 136.62 C 386.63 130.32 376.38 129.10 369.47 133.55 M 119.73 203.84 C 126.34 203.40 133.28 200.81 136.53 194.63 C 129.87 194.43 121.64 196.49 119.73 203.84 M 486.89 267.17 C 492.30 270.74 498.25 274.08 504.92 274.14 C 503.18 271.33 500.94 268.48 497.64 267.52 C 494.14 266.57 490.44 266.48 486.89 267.17 Z" />
</g>
<g id="#26afa6ff">
<path fill="#26afa6" opacity="1.00" d=" M 222.98 38.94 C 280.67 15.78 347.96 20.73 402.98 49.01 C 447.34 71.44 482.57 111.02 500.40 157.37 C 511.40 185.15 515.57 215.33 514.42 245.08 C 517.28 248.74 521.01 251.68 523.59 255.57 C 525.60 258.69 525.56 262.54 525.99 266.11 C 537.04 273.70 547.96 281.49 559.19 288.82 C 562.08 290.70 566.66 291.82 566.83 295.98 C 564.31 304.50 559.40 312.01 553.42 318.49 C 549.90 324.11 543.79 326.98 538.29 330.23 C 531.50 337.67 526.20 347.87 515.79 350.74 C 508.49 352.76 502.01 348.19 495.69 345.34 C 492.56 343.92 488.27 342.78 485.40 345.26 C 482.03 347.95 479.88 351.76 477.20 355.06 C 463.34 372.51 446.84 387.71 429.32 401.41 C 424.86 387.84 415.20 375.72 414.95 360.95 C 414.51 353.33 416.33 345.40 421.26 339.43 C 429.86 328.48 444.18 322.77 457.96 323.86 C 476.82 324.08 491.63 337.33 508.58 343.63 C 513.92 344.98 518.91 341.06 522.71 337.75 C 525.00 335.32 528.22 332.72 528.01 329.05 C 524.01 325.94 518.42 328.40 514.20 325.94 C 511.11 324.35 508.60 321.69 505.22 320.68 C 502.12 319.65 498.80 320.17 495.60 319.91 C 499.84 317.31 505.01 316.38 509.90 317.21 C 515.10 318.34 519.50 321.44 524.20 323.73 C 527.71 324.29 531.40 323.60 534.82 324.95 C 542.74 319.60 549.31 312.50 555.09 304.95 C 556.96 302.29 558.97 299.44 559.20 296.09 C 554.36 292.09 548.88 288.82 543.59 285.42 C 534.34 280.60 525.36 275.26 516.00 270.63 C 516.20 266.51 516.57 262.41 516.89 258.30 C 504.75 246.24 490.28 236.44 474.53 229.73 C 476.35 219.77 475.31 209.26 472.22 199.67 C 467.58 206.31 463.30 213.20 458.27 219.56 C 456.58 207.79 459.93 196.11 462.16 184.65 C 449.90 192.04 441.32 204.08 434.40 216.34 C 433.56 217.61 432.86 219.55 431.00 219.39 C 421.84 219.73 412.58 219.59 403.59 221.57 C 381.51 225.35 360.66 236.46 345.40 252.88 C 350.49 264.89 357.61 276.01 366.25 285.77 C 366.88 286.57 367.47 287.41 368.02 288.29 C 357.52 282.13 348.58 273.42 341.20 263.78 C 334.55 255.36 331.62 244.60 330.99 234.03 C 330.77 227.52 331.77 220.32 336.45 215.40 C 339.02 212.62 342.69 211.39 346.21 210.31 C 345.27 216.55 345.39 222.84 346.27 229.08 C 353.02 217.38 365.45 209.82 378.56 207.42 C 388.58 205.96 398.90 206.60 408.62 209.48 C 412.34 210.54 416.58 210.37 419.66 207.79 C 426.15 203.40 430.71 196.68 433.75 189.55 C 420.08 190.51 407.42 181.72 393.66 184.89 C 402.30 177.22 415.43 176.26 426.01 180.04 C 426.01 180.95 426.00 182.75 426.00 183.66 C 432.85 183.78 439.81 181.59 444.63 176.56 C 449.69 171.44 452.47 164.61 457.18 159.22 C 461.24 154.95 461.85 148.64 462.05 143.03 C 444.82 137.35 426.89 134.27 408.96 131.82 C 406.22 131.62 406.05 128.32 405.23 126.35 C 404.34 122.29 403.46 118.22 402.88 114.10 C 398.60 111.38 393.85 109.51 389.05 107.92 C 378.33 104.49 367.71 100.66 356.69 98.26 C 349.83 96.53 342.49 95.60 336.54 91.46 C 333.32 89.36 331.17 86.10 328.75 83.19 C 322.50 75.13 315.84 66.99 307.06 61.57 C 307.00 73.30 306.41 85.22 309.11 96.73 C 301.43 93.30 294.88 87.90 288.67 82.32 C 281.61 75.85 275.52 68.36 268.06 62.33 C 266.51 72.82 265.81 83.48 266.02 94.10 C 266.19 99.08 267.35 104.01 269.13 108.66 C 262.76 108.76 256.98 111.62 251.39 114.37 C 241.06 119.73 232.16 127.71 225.30 137.09 C 232.05 142.09 236.80 149.28 240.01 156.94 C 236.95 161.40 232.77 165.41 230.18 170.35 C 221.51 185.95 214.13 202.30 208.24 219.15 C 207.42 221.18 207.18 223.58 205.48 225.14 C 206.70 209.24 211.33 193.83 216.96 178.98 C 220.14 170.39 224.11 162.09 228.84 154.24 C 223.48 148.47 216.28 143.33 208.01 143.99 C 205.78 132.99 203.58 121.75 197.97 111.88 C 188.11 124.41 180.66 139.05 169.08 150.27 C 169.18 142.27 166.56 133.61 160.00 128.57 C 158.58 129.09 158.95 131.07 158.40 132.25 C 156.67 140.42 153.88 148.41 149.65 155.63 C 147.77 158.59 144.29 159.85 141.36 161.50 C 131.57 166.63 121.76 172.06 113.50 179.50 C 108.43 184.57 107.87 192.01 106.98 198.72 C 92.74 210.49 76.11 219.35 63.22 232.74 C 65.00 238.08 67.79 243.11 72.02 246.89 C 75.00 249.04 73.19 253.74 76.28 255.75 C 85.35 262.15 97.53 264.91 108.26 261.63 C 106.19 261.12 104.36 260.08 102.78 258.66 C 103.65 257.28 104.29 255.67 105.59 254.63 C 115.16 248.07 127.73 245.87 138.84 249.41 C 133.48 252.01 127.50 253.17 122.41 256.34 C 117.16 259.29 113.02 263.84 107.73 266.71 C 104.40 268.56 100.59 269.12 96.87 269.59 C 97.76 275.46 102.63 279.81 107.61 282.51 C 114.79 285.93 123.24 287.06 130.99 285.15 C 129.56 278.71 134.94 273.75 140.15 271.15 C 146.03 268.20 152.91 268.56 159.19 269.72 C 166.28 270.97 173.34 274.62 177.13 280.94 C 179.96 287.20 180.17 294.24 180.00 301.00 C 180.42 312.76 177.81 324.53 179.62 336.26 C 180.67 347.01 183.90 357.78 190.44 366.51 C 200.83 380.68 217.18 388.75 233.22 394.81 C 259.81 404.24 287.49 410.03 314.35 418.59 C 324.44 421.55 334.82 426.04 341.31 434.68 C 346.52 441.35 346.65 451.53 341.23 458.12 C 335.65 465.01 327.58 469.39 319.42 472.51 C 306.57 477.44 293.11 480.50 280.16 485.10 C 275.62 486.96 270.72 488.64 267.23 492.26 C 265.45 494.07 264.14 496.97 265.59 499.38 C 268.00 503.87 273.11 505.83 277.66 507.42 C 298.43 513.94 319.97 517.42 341.02 522.87 C 361.17 527.91 381.38 533.57 399.91 543.16 C 406.90 547.10 414.39 551.27 418.54 558.45 C 421.49 563.29 421.25 569.63 418.30 574.42 C 414.22 581.24 407.40 585.85 400.42 589.34 C 385.29 597.00 368.60 600.90 351.98 603.71 C 340.05 605.54 328.03 606.85 315.96 607.29 C 306.35 608.44 296.67 607.79 287.03 608.19 C 275.26 608.05 263.48 608.21 251.73 607.51 C 252.68 606.04 254.46 605.69 255.95 605.03 C 268.90 599.55 282.23 593.42 291.69 582.65 C 296.65 576.83 296.50 567.41 290.93 562.04 C 280.25 551.32 265.49 546.38 251.58 541.37 C 237.29 536.45 222.71 532.26 208.85 526.17 C 200.41 522.30 191.53 517.84 186.15 509.96 C 182.53 505.05 183.29 497.87 187.34 493.44 C 193.73 485.98 203.36 482.60 212.30 479.27 C 232.73 472.14 253.89 467.42 274.99 462.79 C 282.46 460.99 289.95 459.06 297.06 456.13 C 299.68 454.90 302.69 453.57 303.94 450.77 C 304.27 447.96 301.03 446.77 298.92 445.91 C 288.94 442.59 278.32 442.06 268.03 440.13 C 237.54 435.50 208.66 422.89 183.16 405.77 C 162.84 392.26 145.22 374.93 130.55 355.48 C 115.75 335.22 103.82 312.49 98.02 287.97 C 97.49 285.26 95.55 283.21 94.10 280.97 C 91.82 277.61 90.30 273.84 88.81 270.09 C 82.51 267.36 75.67 265.22 70.57 260.41 C 68.19 258.45 67.79 255.20 66.27 252.67 C 62.54 246.18 56.83 240.76 54.64 233.44 C 54.07 230.60 55.35 227.30 57.96 225.87 C 69.17 218.44 80.25 210.81 91.65 203.68 C 95.78 189.95 99.30 176.00 104.64 162.65 C 114.08 139.04 126.60 116.48 143.13 97.06 C 164.46 71.56 191.96 51.09 222.98 38.94 Z" />
<path fill="#26afa6" opacity="1.00" d=" M 369.47 133.55 C 376.38 129.10 386.63 130.32 392.08 136.62 C 384.43 137.66 376.53 136.75 369.47 133.55 Z" />
<path fill="#26afa6" opacity="1.00" d=" M 119.73 203.84 C 121.64 196.49 129.87 194.43 136.53 194.63 C 133.28 200.81 126.34 203.40 119.73 203.84 Z" />
<path fill="#26afa6" opacity="1.00" d=" M 486.89 267.17 C 490.44 266.48 494.14 266.57 497.64 267.52 C 500.94 268.48 503.18 271.33 504.92 274.14 C 498.25 274.08 492.30 270.74 486.89 267.17 Z" />
</g>
</svg>
